%TF.GenerationSoftware,KiCad,Pcbnew,9.0.2*%
%TF.CreationDate,2025-07-04T18:03:36-03:00*%
%TF.ProjectId,pathfinder,70617468-6669-46e6-9465-722e6b696361,rev?*%
%TF.SameCoordinates,Original*%
%TF.FileFunction,Soldermask,Top*%
%TF.FilePolarity,Negative*%
%FSLAX46Y46*%
G04 Gerber Fmt 4.6, Leading zero omitted, Abs format (unit mm)*
G04 Created by KiCad (PCBNEW 9.0.2) date 2025-07-04 18:03:36*
%MOMM*%
%LPD*%
G01*
G04 APERTURE LIST*
G04 Aperture macros list*
%AMRoundRect*
0 Rectangle with rounded corners*
0 $1 Rounding radius*
0 $2 $3 $4 $5 $6 $7 $8 $9 X,Y pos of 4 corners*
0 Add a 4 corners polygon primitive as box body*
4,1,4,$2,$3,$4,$5,$6,$7,$8,$9,$2,$3,0*
0 Add four circle primitives for the rounded corners*
1,1,$1+$1,$2,$3*
1,1,$1+$1,$4,$5*
1,1,$1+$1,$6,$7*
1,1,$1+$1,$8,$9*
0 Add four rect primitives between the rounded corners*
20,1,$1+$1,$2,$3,$4,$5,0*
20,1,$1+$1,$4,$5,$6,$7,0*
20,1,$1+$1,$6,$7,$8,$9,0*
20,1,$1+$1,$8,$9,$2,$3,0*%
G04 Aperture macros list end*
%ADD10C,1.700000*%
%ADD11C,4.000000*%
%ADD12C,2.200000*%
%ADD13C,1.400000*%
%ADD14C,2.019000*%
%ADD15RoundRect,0.102000X-0.907500X-0.907500X0.907500X-0.907500X0.907500X0.907500X-0.907500X0.907500X0*%
%ADD16C,1.600000*%
%ADD17RoundRect,0.152400X-0.609600X1.063600X-0.609600X-1.063600X0.609600X-1.063600X0.609600X1.063600X0*%
%ADD18C,1.524000*%
%ADD19RoundRect,0.152400X0.609600X-1.063600X0.609600X1.063600X-0.609600X1.063600X-0.609600X-1.063600X0*%
G04 APERTURE END LIST*
D10*
%TO.C,SW1*%
X137840000Y-118000000D03*
D11*
X142920000Y-118000000D03*
D10*
X148000000Y-118000000D03*
D12*
X145460000Y-112920000D03*
X139110000Y-115460000D03*
%TD*%
D13*
%TO.C,R2*%
X121000000Y-80000000D03*
X126080000Y-80000000D03*
%TD*%
D10*
%TO.C,SW4*%
X159000000Y-118000000D03*
D11*
X164080000Y-118000000D03*
D10*
X169160000Y-118000000D03*
D12*
X166620000Y-112920000D03*
X160270000Y-115460000D03*
%TD*%
D14*
%TO.C,D3*%
X122770000Y-100000000D03*
D15*
X120230000Y-100000000D03*
%TD*%
D13*
%TO.C,R1*%
X121080000Y-76000000D03*
X126160000Y-76000000D03*
%TD*%
D14*
%TO.C,D1*%
X102500000Y-100000000D03*
D15*
X99960000Y-100000000D03*
%TD*%
D13*
%TO.C,R4*%
X121000000Y-88000000D03*
X126080000Y-88000000D03*
%TD*%
D16*
%TO.C,BZ1*%
X161750000Y-82500000D03*
X168250000Y-82500000D03*
%TD*%
D17*
%TO.C,U1*%
X96648500Y-90455000D03*
D18*
X96648500Y-89620000D03*
D17*
X99188500Y-90455000D03*
D18*
X99188500Y-89620000D03*
D17*
X101728500Y-90455000D03*
D18*
X101728500Y-89620000D03*
D17*
X104268500Y-90455000D03*
D18*
X104268500Y-89620000D03*
D17*
X106808500Y-90455000D03*
D18*
X106808500Y-89620000D03*
D17*
X109348500Y-90455000D03*
D18*
X109348500Y-89620000D03*
D17*
X111888500Y-90455000D03*
D18*
X111888500Y-89620000D03*
X111888500Y-74380000D03*
D19*
X111888500Y-73545000D03*
D18*
X109348500Y-74380000D03*
D19*
X109348500Y-73545000D03*
D18*
X106808500Y-74380000D03*
D19*
X106808500Y-73545000D03*
D18*
X104268500Y-74380000D03*
D19*
X104268500Y-73545000D03*
D18*
X101728500Y-74380000D03*
D19*
X101728500Y-73545000D03*
D18*
X99188500Y-74380000D03*
D19*
X99188500Y-73545000D03*
D18*
X96648500Y-74380000D03*
D19*
X96648500Y-73545000D03*
%TD*%
D14*
%TO.C,D4*%
X144770000Y-100000000D03*
D15*
X142230000Y-100000000D03*
%TD*%
D13*
%TO.C,R3*%
X121080000Y-84000000D03*
X126160000Y-84000000D03*
%TD*%
D14*
%TO.C,D2*%
X165770000Y-100000000D03*
D15*
X163230000Y-100000000D03*
%TD*%
D10*
%TO.C,SW3*%
X116500000Y-118000000D03*
D11*
X121580000Y-118000000D03*
D10*
X126660000Y-118000000D03*
D12*
X124120000Y-112920000D03*
X117770000Y-115460000D03*
%TD*%
D10*
%TO.C,SW2*%
X95500000Y-118000000D03*
D11*
X100580000Y-118000000D03*
D10*
X105660000Y-118000000D03*
D12*
X103120000Y-112920000D03*
X96770000Y-115460000D03*
%TD*%
M02*
