%TF.GenerationSoftware,KiCad,Pcbnew,9.0.2*%
%TF.CreationDate,2025-07-04T18:03:36-03:00*%
%TF.ProjectId,pathfinder,70617468-6669-46e6-9465-722e6b696361,rev?*%
%TF.SameCoordinates,Original*%
%TF.FileFunction,Copper,L2,Bot*%
%TF.FilePolarity,Positive*%
%FSLAX46Y46*%
G04 Gerber Fmt 4.6, Leading zero omitted, Abs format (unit mm)*
G04 Created by KiCad (PCBNEW 9.0.2) date 2025-07-04 18:03:36*
%MOMM*%
%LPD*%
G01*
G04 APERTURE LIST*
%TA.AperFunction,ComponentPad*%
%ADD10C,2.200000*%
%TD*%
%TA.AperFunction,ComponentPad*%
%ADD11C,1.400000*%
%TD*%
%TA.AperFunction,ComponentPad*%
%ADD12C,1.815000*%
%TD*%
%TA.AperFunction,ComponentPad*%
%ADD13R,1.815000X1.815000*%
%TD*%
%TA.AperFunction,ComponentPad*%
%ADD14C,1.600000*%
%TD*%
%TA.AperFunction,ComponentPad*%
%ADD15C,1.524000*%
%TD*%
%TA.AperFunction,ViaPad*%
%ADD16C,5.500000*%
%TD*%
%TA.AperFunction,ViaPad*%
%ADD17C,0.600000*%
%TD*%
%TA.AperFunction,Conductor*%
%ADD18C,0.200000*%
%TD*%
G04 APERTURE END LIST*
D10*
%TO.P,SW1,1,1*%
%TO.N,SW1*%
X145460000Y-112920000D03*
%TO.P,SW1,2,2*%
%TO.N,GND*%
X139110000Y-115460000D03*
%TD*%
D11*
%TO.P,R2,1*%
%TO.N,Net-(D2-PadA)*%
X121000000Y-80000000D03*
%TO.P,R2,2*%
%TO.N,LED2*%
X126080000Y-80000000D03*
%TD*%
D10*
%TO.P,SW4,1,1*%
%TO.N,SW4*%
X166620000Y-112920000D03*
%TO.P,SW4,2,2*%
%TO.N,GND*%
X160270000Y-115460000D03*
%TD*%
D12*
%TO.P,D3,A*%
%TO.N,Net-(D3-PadA)*%
X122770000Y-100000000D03*
D13*
%TO.P,D3,C*%
%TO.N,GND*%
X120230000Y-100000000D03*
%TD*%
D11*
%TO.P,R1,1*%
%TO.N,Net-(D1-PadA)*%
X121080000Y-76000000D03*
%TO.P,R1,2*%
%TO.N,LED1*%
X126160000Y-76000000D03*
%TD*%
D12*
%TO.P,D1,A*%
%TO.N,Net-(D1-PadA)*%
X102500000Y-100000000D03*
D13*
%TO.P,D1,C*%
%TO.N,GND*%
X99960000Y-100000000D03*
%TD*%
D11*
%TO.P,R4,1*%
%TO.N,Net-(D4-PadA)*%
X121000000Y-88000000D03*
%TO.P,R4,2*%
%TO.N,LED4*%
X126080000Y-88000000D03*
%TD*%
D14*
%TO.P,BZ1,1,+*%
%TO.N,BUZ*%
X161750000Y-82500000D03*
%TO.P,BZ1,2,-*%
%TO.N,GND*%
X168250000Y-82500000D03*
%TD*%
D15*
%TO.P,U1,1,GPIO26/ADC0/A0*%
%TO.N,LED1*%
X96648500Y-89620000D03*
%TO.P,U1,2,GPIO27/ADC1/A1*%
%TO.N,LED2*%
X99188500Y-89620000D03*
%TO.P,U1,3,GPIO28/ADC2/A2*%
%TO.N,LED3*%
X101728500Y-89620000D03*
%TO.P,U1,4,GPIO29/ADC3/A3*%
%TO.N,LED4*%
X104268500Y-89620000D03*
%TO.P,U1,5,GPIO6/SDA*%
%TO.N,SW1*%
X106808500Y-89620000D03*
%TO.P,U1,6,GPIO7/SCL*%
%TO.N,SW2*%
X109348500Y-89620000D03*
%TO.P,U1,7,GPIO0/TX*%
%TO.N,SW3*%
X111888500Y-89620000D03*
%TO.P,U1,8,GPIO1/RX*%
%TO.N,SW4*%
X111888500Y-74380000D03*
%TO.P,U1,9,GPIO2/SCK*%
%TO.N,BUZ*%
X109348500Y-74380000D03*
%TO.P,U1,10,GPIO4/MISO*%
%TO.N,unconnected-(U1-GPIO4{slash}MISO-Pad10)*%
X106808500Y-74380000D03*
%TO.P,U1,11,GPIO3/MOSI*%
%TO.N,unconnected-(U1-GPIO3{slash}MOSI-Pad11)*%
X104268500Y-74380000D03*
%TO.P,U1,12,3V3*%
%TO.N,unconnected-(U1-3V3-Pad12)*%
X101728500Y-74380000D03*
%TO.P,U1,13,GND*%
%TO.N,GND*%
X99188500Y-74380000D03*
%TO.P,U1,14,VBUS*%
%TO.N,unconnected-(U1-VBUS-Pad14)*%
X96648500Y-74380000D03*
%TD*%
D12*
%TO.P,D4,A*%
%TO.N,Net-(D4-PadA)*%
X144770000Y-100000000D03*
D13*
%TO.P,D4,C*%
%TO.N,GND*%
X142230000Y-100000000D03*
%TD*%
D11*
%TO.P,R3,1*%
%TO.N,Net-(D3-PadA)*%
X121080000Y-84000000D03*
%TO.P,R3,2*%
%TO.N,LED3*%
X126160000Y-84000000D03*
%TD*%
D12*
%TO.P,D2,A*%
%TO.N,Net-(D2-PadA)*%
X165770000Y-100000000D03*
D13*
%TO.P,D2,C*%
%TO.N,GND*%
X163230000Y-100000000D03*
%TD*%
D10*
%TO.P,SW3,1,1*%
%TO.N,SW3*%
X124120000Y-112920000D03*
%TO.P,SW3,2,2*%
%TO.N,GND*%
X117770000Y-115460000D03*
%TD*%
%TO.P,SW2,1,1*%
%TO.N,SW2*%
X103120000Y-112920000D03*
%TO.P,SW2,2,2*%
%TO.N,GND*%
X96770000Y-115460000D03*
%TD*%
D16*
%TO.N,*%
X134500000Y-68500000D03*
D17*
%TO.N,Net-(D1-PadA)*%
X114000000Y-76000000D03*
X114000000Y-100000000D03*
%TO.N,Net-(D2-PadA)*%
X166000000Y-78500000D03*
%TO.N,Net-(D3-PadA)*%
X117500000Y-100500000D03*
X117500000Y-84000000D03*
%TO.N,Net-(D4-PadA)*%
X129500000Y-101500000D03*
X129500000Y-86000000D03*
%TO.N,GND*%
X98000000Y-99500000D03*
X142230000Y-115230000D03*
%TO.N,SW1*%
X147000000Y-92500000D03*
%TO.N,SW2*%
X109000000Y-113000000D03*
%TO.N,SW3*%
X124000000Y-91000000D03*
%TO.N,SW4*%
X168000000Y-74500000D03*
%TO.N,BUZ*%
X109000000Y-82600000D03*
%TD*%
D18*
%TO.N,Net-(D1-PadA)*%
X114000000Y-100000000D02*
X114000000Y-76000000D01*
%TO.N,Net-(D2-PadA)*%
X165770000Y-79230000D02*
X165770000Y-100000000D01*
X166000000Y-79000000D02*
X165770000Y-79230000D01*
X166000000Y-78500000D02*
X166000000Y-79000000D01*
%TO.N,Net-(D3-PadA)*%
X117500000Y-84000000D02*
X117500000Y-100500000D01*
%TO.N,Net-(D4-PadA)*%
X129500000Y-101500000D02*
X129500000Y-86000000D01*
%TO.N,GND*%
X142230000Y-100000000D02*
X142230000Y-115230000D01*
X99188500Y-74380000D02*
X98000000Y-75568500D01*
X98000000Y-75568500D02*
X98000000Y-99500000D01*
%TO.N,SW1*%
X147000000Y-111380000D02*
X147000000Y-97000000D01*
X145460000Y-112920000D02*
X147000000Y-111380000D01*
X147000000Y-97000000D02*
X147000000Y-92500000D01*
%TO.N,SW2*%
X109348500Y-112651500D02*
X109000000Y-113000000D01*
X109348500Y-89620000D02*
X109348500Y-112651500D01*
%TO.N,SW3*%
X124120000Y-112920000D02*
X124120000Y-91120000D01*
X124120000Y-91120000D02*
X124000000Y-91000000D01*
%TO.N,SW4*%
X168000000Y-111540000D02*
X166620000Y-112920000D01*
X168000000Y-74500000D02*
X168000000Y-111540000D01*
%TO.N,BUZ*%
X109348500Y-82251500D02*
X109348500Y-74380000D01*
X109000000Y-82600000D02*
X109348500Y-82251500D01*
%TD*%
M02*
