%TF.GenerationSoftware,KiCad,Pcbnew,9.0.2*%
%TF.CreationDate,2025-07-04T18:03:36-03:00*%
%TF.ProjectId,pathfinder,70617468-6669-46e6-9465-722e6b696361,rev?*%
%TF.SameCoordinates,Original*%
%TF.FileFunction,Legend,Top*%
%TF.FilePolarity,Positive*%
%FSLAX46Y46*%
G04 Gerber Fmt 4.6, Leading zero omitted, Abs format (unit mm)*
G04 Created by KiCad (PCBNEW 9.0.2) date 2025-07-04 18:03:36*
%MOMM*%
%LPD*%
G01*
G04 APERTURE LIST*
%ADD10C,0.150000*%
%ADD11C,0.100000*%
%ADD12C,0.101600*%
%ADD13C,0.120000*%
%ADD14C,0.000000*%
%ADD15C,0.127000*%
%ADD16C,0.200000*%
%ADD17C,0.504000*%
G04 APERTURE END LIST*
D10*
X141586667Y-110533200D02*
X141729524Y-110580819D01*
X141729524Y-110580819D02*
X141967619Y-110580819D01*
X141967619Y-110580819D02*
X142062857Y-110533200D01*
X142062857Y-110533200D02*
X142110476Y-110485580D01*
X142110476Y-110485580D02*
X142158095Y-110390342D01*
X142158095Y-110390342D02*
X142158095Y-110295104D01*
X142158095Y-110295104D02*
X142110476Y-110199866D01*
X142110476Y-110199866D02*
X142062857Y-110152247D01*
X142062857Y-110152247D02*
X141967619Y-110104628D01*
X141967619Y-110104628D02*
X141777143Y-110057009D01*
X141777143Y-110057009D02*
X141681905Y-110009390D01*
X141681905Y-110009390D02*
X141634286Y-109961771D01*
X141634286Y-109961771D02*
X141586667Y-109866533D01*
X141586667Y-109866533D02*
X141586667Y-109771295D01*
X141586667Y-109771295D02*
X141634286Y-109676057D01*
X141634286Y-109676057D02*
X141681905Y-109628438D01*
X141681905Y-109628438D02*
X141777143Y-109580819D01*
X141777143Y-109580819D02*
X142015238Y-109580819D01*
X142015238Y-109580819D02*
X142158095Y-109628438D01*
X142491429Y-109580819D02*
X142729524Y-110580819D01*
X142729524Y-110580819D02*
X142920000Y-109866533D01*
X142920000Y-109866533D02*
X143110476Y-110580819D01*
X143110476Y-110580819D02*
X143348572Y-109580819D01*
X144253333Y-110580819D02*
X143681905Y-110580819D01*
X143967619Y-110580819D02*
X143967619Y-109580819D01*
X143967619Y-109580819D02*
X143872381Y-109723676D01*
X143872381Y-109723676D02*
X143777143Y-109818914D01*
X143777143Y-109818914D02*
X143681905Y-109866533D01*
X123373333Y-78534819D02*
X123040000Y-78058628D01*
X122801905Y-78534819D02*
X122801905Y-77534819D01*
X122801905Y-77534819D02*
X123182857Y-77534819D01*
X123182857Y-77534819D02*
X123278095Y-77582438D01*
X123278095Y-77582438D02*
X123325714Y-77630057D01*
X123325714Y-77630057D02*
X123373333Y-77725295D01*
X123373333Y-77725295D02*
X123373333Y-77868152D01*
X123373333Y-77868152D02*
X123325714Y-77963390D01*
X123325714Y-77963390D02*
X123278095Y-78011009D01*
X123278095Y-78011009D02*
X123182857Y-78058628D01*
X123182857Y-78058628D02*
X122801905Y-78058628D01*
X123754286Y-77630057D02*
X123801905Y-77582438D01*
X123801905Y-77582438D02*
X123897143Y-77534819D01*
X123897143Y-77534819D02*
X124135238Y-77534819D01*
X124135238Y-77534819D02*
X124230476Y-77582438D01*
X124230476Y-77582438D02*
X124278095Y-77630057D01*
X124278095Y-77630057D02*
X124325714Y-77725295D01*
X124325714Y-77725295D02*
X124325714Y-77820533D01*
X124325714Y-77820533D02*
X124278095Y-77963390D01*
X124278095Y-77963390D02*
X123706667Y-78534819D01*
X123706667Y-78534819D02*
X124325714Y-78534819D01*
X162746667Y-110533200D02*
X162889524Y-110580819D01*
X162889524Y-110580819D02*
X163127619Y-110580819D01*
X163127619Y-110580819D02*
X163222857Y-110533200D01*
X163222857Y-110533200D02*
X163270476Y-110485580D01*
X163270476Y-110485580D02*
X163318095Y-110390342D01*
X163318095Y-110390342D02*
X163318095Y-110295104D01*
X163318095Y-110295104D02*
X163270476Y-110199866D01*
X163270476Y-110199866D02*
X163222857Y-110152247D01*
X163222857Y-110152247D02*
X163127619Y-110104628D01*
X163127619Y-110104628D02*
X162937143Y-110057009D01*
X162937143Y-110057009D02*
X162841905Y-110009390D01*
X162841905Y-110009390D02*
X162794286Y-109961771D01*
X162794286Y-109961771D02*
X162746667Y-109866533D01*
X162746667Y-109866533D02*
X162746667Y-109771295D01*
X162746667Y-109771295D02*
X162794286Y-109676057D01*
X162794286Y-109676057D02*
X162841905Y-109628438D01*
X162841905Y-109628438D02*
X162937143Y-109580819D01*
X162937143Y-109580819D02*
X163175238Y-109580819D01*
X163175238Y-109580819D02*
X163318095Y-109628438D01*
X163651429Y-109580819D02*
X163889524Y-110580819D01*
X163889524Y-110580819D02*
X164080000Y-109866533D01*
X164080000Y-109866533D02*
X164270476Y-110580819D01*
X164270476Y-110580819D02*
X164508572Y-109580819D01*
X165318095Y-109914152D02*
X165318095Y-110580819D01*
X165080000Y-109533200D02*
X164841905Y-110247485D01*
X164841905Y-110247485D02*
X165460952Y-110247485D01*
X120949524Y-96654295D02*
X120949524Y-95854295D01*
X120949524Y-95854295D02*
X121140000Y-95854295D01*
X121140000Y-95854295D02*
X121254286Y-95892390D01*
X121254286Y-95892390D02*
X121330476Y-95968580D01*
X121330476Y-95968580D02*
X121368571Y-96044771D01*
X121368571Y-96044771D02*
X121406667Y-96197152D01*
X121406667Y-96197152D02*
X121406667Y-96311438D01*
X121406667Y-96311438D02*
X121368571Y-96463819D01*
X121368571Y-96463819D02*
X121330476Y-96540009D01*
X121330476Y-96540009D02*
X121254286Y-96616200D01*
X121254286Y-96616200D02*
X121140000Y-96654295D01*
X121140000Y-96654295D02*
X120949524Y-96654295D01*
X121673333Y-95854295D02*
X122168571Y-95854295D01*
X122168571Y-95854295D02*
X121901905Y-96159057D01*
X121901905Y-96159057D02*
X122016190Y-96159057D01*
X122016190Y-96159057D02*
X122092381Y-96197152D01*
X122092381Y-96197152D02*
X122130476Y-96235247D01*
X122130476Y-96235247D02*
X122168571Y-96311438D01*
X122168571Y-96311438D02*
X122168571Y-96501914D01*
X122168571Y-96501914D02*
X122130476Y-96578104D01*
X122130476Y-96578104D02*
X122092381Y-96616200D01*
X122092381Y-96616200D02*
X122016190Y-96654295D01*
X122016190Y-96654295D02*
X121787619Y-96654295D01*
X121787619Y-96654295D02*
X121711428Y-96616200D01*
X121711428Y-96616200D02*
X121673333Y-96578104D01*
X123453333Y-74534819D02*
X123120000Y-74058628D01*
X122881905Y-74534819D02*
X122881905Y-73534819D01*
X122881905Y-73534819D02*
X123262857Y-73534819D01*
X123262857Y-73534819D02*
X123358095Y-73582438D01*
X123358095Y-73582438D02*
X123405714Y-73630057D01*
X123405714Y-73630057D02*
X123453333Y-73725295D01*
X123453333Y-73725295D02*
X123453333Y-73868152D01*
X123453333Y-73868152D02*
X123405714Y-73963390D01*
X123405714Y-73963390D02*
X123358095Y-74011009D01*
X123358095Y-74011009D02*
X123262857Y-74058628D01*
X123262857Y-74058628D02*
X122881905Y-74058628D01*
X124405714Y-74534819D02*
X123834286Y-74534819D01*
X124120000Y-74534819D02*
X124120000Y-73534819D01*
X124120000Y-73534819D02*
X124024762Y-73677676D01*
X124024762Y-73677676D02*
X123929524Y-73772914D01*
X123929524Y-73772914D02*
X123834286Y-73820533D01*
X100679524Y-96654295D02*
X100679524Y-95854295D01*
X100679524Y-95854295D02*
X100870000Y-95854295D01*
X100870000Y-95854295D02*
X100984286Y-95892390D01*
X100984286Y-95892390D02*
X101060476Y-95968580D01*
X101060476Y-95968580D02*
X101098571Y-96044771D01*
X101098571Y-96044771D02*
X101136667Y-96197152D01*
X101136667Y-96197152D02*
X101136667Y-96311438D01*
X101136667Y-96311438D02*
X101098571Y-96463819D01*
X101098571Y-96463819D02*
X101060476Y-96540009D01*
X101060476Y-96540009D02*
X100984286Y-96616200D01*
X100984286Y-96616200D02*
X100870000Y-96654295D01*
X100870000Y-96654295D02*
X100679524Y-96654295D01*
X101898571Y-96654295D02*
X101441428Y-96654295D01*
X101670000Y-96654295D02*
X101670000Y-95854295D01*
X101670000Y-95854295D02*
X101593809Y-95968580D01*
X101593809Y-95968580D02*
X101517619Y-96044771D01*
X101517619Y-96044771D02*
X101441428Y-96082866D01*
X123373333Y-86534819D02*
X123040000Y-86058628D01*
X122801905Y-86534819D02*
X122801905Y-85534819D01*
X122801905Y-85534819D02*
X123182857Y-85534819D01*
X123182857Y-85534819D02*
X123278095Y-85582438D01*
X123278095Y-85582438D02*
X123325714Y-85630057D01*
X123325714Y-85630057D02*
X123373333Y-85725295D01*
X123373333Y-85725295D02*
X123373333Y-85868152D01*
X123373333Y-85868152D02*
X123325714Y-85963390D01*
X123325714Y-85963390D02*
X123278095Y-86011009D01*
X123278095Y-86011009D02*
X123182857Y-86058628D01*
X123182857Y-86058628D02*
X122801905Y-86058628D01*
X124230476Y-85868152D02*
X124230476Y-86534819D01*
X123992381Y-85487200D02*
X123754286Y-86201485D01*
X123754286Y-86201485D02*
X124373333Y-86201485D01*
D11*
X164119047Y-81933609D02*
X164261904Y-81981228D01*
X164261904Y-81981228D02*
X164309523Y-82028847D01*
X164309523Y-82028847D02*
X164357142Y-82124085D01*
X164357142Y-82124085D02*
X164357142Y-82266942D01*
X164357142Y-82266942D02*
X164309523Y-82362180D01*
X164309523Y-82362180D02*
X164261904Y-82409800D01*
X164261904Y-82409800D02*
X164166666Y-82457419D01*
X164166666Y-82457419D02*
X163785714Y-82457419D01*
X163785714Y-82457419D02*
X163785714Y-81457419D01*
X163785714Y-81457419D02*
X164119047Y-81457419D01*
X164119047Y-81457419D02*
X164214285Y-81505038D01*
X164214285Y-81505038D02*
X164261904Y-81552657D01*
X164261904Y-81552657D02*
X164309523Y-81647895D01*
X164309523Y-81647895D02*
X164309523Y-81743133D01*
X164309523Y-81743133D02*
X164261904Y-81838371D01*
X164261904Y-81838371D02*
X164214285Y-81885990D01*
X164214285Y-81885990D02*
X164119047Y-81933609D01*
X164119047Y-81933609D02*
X163785714Y-81933609D01*
X164690476Y-81457419D02*
X165357142Y-81457419D01*
X165357142Y-81457419D02*
X164690476Y-82457419D01*
X164690476Y-82457419D02*
X165357142Y-82457419D01*
X166261904Y-82457419D02*
X165690476Y-82457419D01*
X165976190Y-82457419D02*
X165976190Y-81457419D01*
X165976190Y-81457419D02*
X165880952Y-81600276D01*
X165880952Y-81600276D02*
X165785714Y-81695514D01*
X165785714Y-81695514D02*
X165690476Y-81743133D01*
D12*
X91921979Y-90983809D02*
X92436026Y-90983809D01*
X92436026Y-90983809D02*
X92496502Y-90953571D01*
X92496502Y-90953571D02*
X92526741Y-90923333D01*
X92526741Y-90923333D02*
X92556979Y-90862857D01*
X92556979Y-90862857D02*
X92556979Y-90741904D01*
X92556979Y-90741904D02*
X92526741Y-90681428D01*
X92526741Y-90681428D02*
X92496502Y-90651190D01*
X92496502Y-90651190D02*
X92436026Y-90620952D01*
X92436026Y-90620952D02*
X91921979Y-90620952D01*
X92556979Y-89985952D02*
X92556979Y-90348809D01*
X92556979Y-90167381D02*
X91921979Y-90167381D01*
X91921979Y-90167381D02*
X92012693Y-90227857D01*
X92012693Y-90227857D02*
X92073169Y-90288333D01*
X92073169Y-90288333D02*
X92103407Y-90348809D01*
D10*
X142949524Y-96654295D02*
X142949524Y-95854295D01*
X142949524Y-95854295D02*
X143140000Y-95854295D01*
X143140000Y-95854295D02*
X143254286Y-95892390D01*
X143254286Y-95892390D02*
X143330476Y-95968580D01*
X143330476Y-95968580D02*
X143368571Y-96044771D01*
X143368571Y-96044771D02*
X143406667Y-96197152D01*
X143406667Y-96197152D02*
X143406667Y-96311438D01*
X143406667Y-96311438D02*
X143368571Y-96463819D01*
X143368571Y-96463819D02*
X143330476Y-96540009D01*
X143330476Y-96540009D02*
X143254286Y-96616200D01*
X143254286Y-96616200D02*
X143140000Y-96654295D01*
X143140000Y-96654295D02*
X142949524Y-96654295D01*
X144092381Y-96120961D02*
X144092381Y-96654295D01*
X143901905Y-95816200D02*
X143711428Y-96387628D01*
X143711428Y-96387628D02*
X144206667Y-96387628D01*
X123453333Y-82534819D02*
X123120000Y-82058628D01*
X122881905Y-82534819D02*
X122881905Y-81534819D01*
X122881905Y-81534819D02*
X123262857Y-81534819D01*
X123262857Y-81534819D02*
X123358095Y-81582438D01*
X123358095Y-81582438D02*
X123405714Y-81630057D01*
X123405714Y-81630057D02*
X123453333Y-81725295D01*
X123453333Y-81725295D02*
X123453333Y-81868152D01*
X123453333Y-81868152D02*
X123405714Y-81963390D01*
X123405714Y-81963390D02*
X123358095Y-82011009D01*
X123358095Y-82011009D02*
X123262857Y-82058628D01*
X123262857Y-82058628D02*
X122881905Y-82058628D01*
X123786667Y-81534819D02*
X124405714Y-81534819D01*
X124405714Y-81534819D02*
X124072381Y-81915771D01*
X124072381Y-81915771D02*
X124215238Y-81915771D01*
X124215238Y-81915771D02*
X124310476Y-81963390D01*
X124310476Y-81963390D02*
X124358095Y-82011009D01*
X124358095Y-82011009D02*
X124405714Y-82106247D01*
X124405714Y-82106247D02*
X124405714Y-82344342D01*
X124405714Y-82344342D02*
X124358095Y-82439580D01*
X124358095Y-82439580D02*
X124310476Y-82487200D01*
X124310476Y-82487200D02*
X124215238Y-82534819D01*
X124215238Y-82534819D02*
X123929524Y-82534819D01*
X123929524Y-82534819D02*
X123834286Y-82487200D01*
X123834286Y-82487200D02*
X123786667Y-82439580D01*
X163949524Y-96654295D02*
X163949524Y-95854295D01*
X163949524Y-95854295D02*
X164140000Y-95854295D01*
X164140000Y-95854295D02*
X164254286Y-95892390D01*
X164254286Y-95892390D02*
X164330476Y-95968580D01*
X164330476Y-95968580D02*
X164368571Y-96044771D01*
X164368571Y-96044771D02*
X164406667Y-96197152D01*
X164406667Y-96197152D02*
X164406667Y-96311438D01*
X164406667Y-96311438D02*
X164368571Y-96463819D01*
X164368571Y-96463819D02*
X164330476Y-96540009D01*
X164330476Y-96540009D02*
X164254286Y-96616200D01*
X164254286Y-96616200D02*
X164140000Y-96654295D01*
X164140000Y-96654295D02*
X163949524Y-96654295D01*
X164711428Y-95930485D02*
X164749524Y-95892390D01*
X164749524Y-95892390D02*
X164825714Y-95854295D01*
X164825714Y-95854295D02*
X165016190Y-95854295D01*
X165016190Y-95854295D02*
X165092381Y-95892390D01*
X165092381Y-95892390D02*
X165130476Y-95930485D01*
X165130476Y-95930485D02*
X165168571Y-96006676D01*
X165168571Y-96006676D02*
X165168571Y-96082866D01*
X165168571Y-96082866D02*
X165130476Y-96197152D01*
X165130476Y-96197152D02*
X164673333Y-96654295D01*
X164673333Y-96654295D02*
X165168571Y-96654295D01*
X120246667Y-110533200D02*
X120389524Y-110580819D01*
X120389524Y-110580819D02*
X120627619Y-110580819D01*
X120627619Y-110580819D02*
X120722857Y-110533200D01*
X120722857Y-110533200D02*
X120770476Y-110485580D01*
X120770476Y-110485580D02*
X120818095Y-110390342D01*
X120818095Y-110390342D02*
X120818095Y-110295104D01*
X120818095Y-110295104D02*
X120770476Y-110199866D01*
X120770476Y-110199866D02*
X120722857Y-110152247D01*
X120722857Y-110152247D02*
X120627619Y-110104628D01*
X120627619Y-110104628D02*
X120437143Y-110057009D01*
X120437143Y-110057009D02*
X120341905Y-110009390D01*
X120341905Y-110009390D02*
X120294286Y-109961771D01*
X120294286Y-109961771D02*
X120246667Y-109866533D01*
X120246667Y-109866533D02*
X120246667Y-109771295D01*
X120246667Y-109771295D02*
X120294286Y-109676057D01*
X120294286Y-109676057D02*
X120341905Y-109628438D01*
X120341905Y-109628438D02*
X120437143Y-109580819D01*
X120437143Y-109580819D02*
X120675238Y-109580819D01*
X120675238Y-109580819D02*
X120818095Y-109628438D01*
X121151429Y-109580819D02*
X121389524Y-110580819D01*
X121389524Y-110580819D02*
X121580000Y-109866533D01*
X121580000Y-109866533D02*
X121770476Y-110580819D01*
X121770476Y-110580819D02*
X122008572Y-109580819D01*
X122294286Y-109580819D02*
X122913333Y-109580819D01*
X122913333Y-109580819D02*
X122580000Y-109961771D01*
X122580000Y-109961771D02*
X122722857Y-109961771D01*
X122722857Y-109961771D02*
X122818095Y-110009390D01*
X122818095Y-110009390D02*
X122865714Y-110057009D01*
X122865714Y-110057009D02*
X122913333Y-110152247D01*
X122913333Y-110152247D02*
X122913333Y-110390342D01*
X122913333Y-110390342D02*
X122865714Y-110485580D01*
X122865714Y-110485580D02*
X122818095Y-110533200D01*
X122818095Y-110533200D02*
X122722857Y-110580819D01*
X122722857Y-110580819D02*
X122437143Y-110580819D01*
X122437143Y-110580819D02*
X122341905Y-110533200D01*
X122341905Y-110533200D02*
X122294286Y-110485580D01*
X99246667Y-110533200D02*
X99389524Y-110580819D01*
X99389524Y-110580819D02*
X99627619Y-110580819D01*
X99627619Y-110580819D02*
X99722857Y-110533200D01*
X99722857Y-110533200D02*
X99770476Y-110485580D01*
X99770476Y-110485580D02*
X99818095Y-110390342D01*
X99818095Y-110390342D02*
X99818095Y-110295104D01*
X99818095Y-110295104D02*
X99770476Y-110199866D01*
X99770476Y-110199866D02*
X99722857Y-110152247D01*
X99722857Y-110152247D02*
X99627619Y-110104628D01*
X99627619Y-110104628D02*
X99437143Y-110057009D01*
X99437143Y-110057009D02*
X99341905Y-110009390D01*
X99341905Y-110009390D02*
X99294286Y-109961771D01*
X99294286Y-109961771D02*
X99246667Y-109866533D01*
X99246667Y-109866533D02*
X99246667Y-109771295D01*
X99246667Y-109771295D02*
X99294286Y-109676057D01*
X99294286Y-109676057D02*
X99341905Y-109628438D01*
X99341905Y-109628438D02*
X99437143Y-109580819D01*
X99437143Y-109580819D02*
X99675238Y-109580819D01*
X99675238Y-109580819D02*
X99818095Y-109628438D01*
X100151429Y-109580819D02*
X100389524Y-110580819D01*
X100389524Y-110580819D02*
X100580000Y-109866533D01*
X100580000Y-109866533D02*
X100770476Y-110580819D01*
X100770476Y-110580819D02*
X101008572Y-109580819D01*
X101341905Y-109676057D02*
X101389524Y-109628438D01*
X101389524Y-109628438D02*
X101484762Y-109580819D01*
X101484762Y-109580819D02*
X101722857Y-109580819D01*
X101722857Y-109580819D02*
X101818095Y-109628438D01*
X101818095Y-109628438D02*
X101865714Y-109676057D01*
X101865714Y-109676057D02*
X101913333Y-109771295D01*
X101913333Y-109771295D02*
X101913333Y-109866533D01*
X101913333Y-109866533D02*
X101865714Y-110009390D01*
X101865714Y-110009390D02*
X101294286Y-110580819D01*
X101294286Y-110580819D02*
X101913333Y-110580819D01*
D13*
%TO.C,SW1*%
X135935000Y-111015000D02*
X149905000Y-111015000D01*
X135935000Y-124985000D02*
X135935000Y-111015000D01*
X149905000Y-111015000D02*
X149905000Y-124985000D01*
X149905000Y-124985000D02*
X135935000Y-124985000D01*
D14*
%TO.C,G\u002A\u002A\u002A*%
G36*
X146352030Y-72069310D02*
G01*
X146352030Y-73180908D01*
X146143605Y-73180908D01*
X145935181Y-73180908D01*
X145935181Y-72069310D01*
X145935181Y-70957713D01*
X146143605Y-70957713D01*
X146352030Y-70957713D01*
X146352030Y-72069310D01*
G37*
G36*
X142372909Y-71706543D02*
G01*
X142387402Y-71749981D01*
X142396374Y-71833829D01*
X142400081Y-71909518D01*
X142402979Y-72018156D01*
X142399961Y-72082635D01*
X142388659Y-72114265D01*
X142366706Y-72124353D01*
X142355000Y-72124890D01*
X142315679Y-72109673D01*
X142292771Y-72056008D01*
X142286370Y-72020678D01*
X142279865Y-71917962D01*
X142288095Y-71820168D01*
X142308141Y-71742103D01*
X142337084Y-71698573D01*
X142350751Y-71694146D01*
X142372909Y-71706543D01*
G37*
G36*
X145546122Y-71166137D02*
G01*
X145546122Y-71374562D01*
X145212642Y-71374562D01*
X144879163Y-71374562D01*
X144879163Y-71610776D01*
X144879163Y-71846991D01*
X145157063Y-71846991D01*
X145434962Y-71846991D01*
X145434962Y-72069310D01*
X145434962Y-72291630D01*
X145157063Y-72291630D01*
X144879163Y-72291630D01*
X144879163Y-72736269D01*
X144879163Y-73180908D01*
X144656844Y-73180908D01*
X144434524Y-73180908D01*
X144434524Y-72069310D01*
X144434524Y-70957713D01*
X144990323Y-70957713D01*
X145546122Y-70957713D01*
X145546122Y-71166137D01*
G37*
G36*
X143155588Y-71604947D02*
G01*
X143170398Y-71628928D01*
X143179911Y-71684049D01*
X143186276Y-71779926D01*
X143189169Y-71852289D01*
X143190922Y-72000633D01*
X143182883Y-72100427D01*
X143163788Y-72158040D01*
X143132376Y-72179844D01*
X143124122Y-72180470D01*
X143092660Y-72158569D01*
X143084689Y-72143533D01*
X143079193Y-72100419D01*
X143076626Y-72016828D01*
X143077311Y-71907803D01*
X143078614Y-71858999D01*
X143084238Y-71737636D01*
X143092936Y-71661517D01*
X143106909Y-71620314D01*
X143128363Y-71603696D01*
X143133330Y-71602492D01*
X143155588Y-71604947D01*
G37*
G36*
X142352474Y-71417491D02*
G01*
X142445761Y-71456625D01*
X142534818Y-71510329D01*
X142604652Y-71569179D01*
X142640268Y-71623750D01*
X142642073Y-71636251D01*
X142627175Y-71688261D01*
X142582060Y-71694211D01*
X142513553Y-71659254D01*
X142434825Y-71605839D01*
X142365309Y-71557410D01*
X142303303Y-71522813D01*
X142245280Y-71522512D01*
X142200062Y-71536568D01*
X142110799Y-71563725D01*
X142061878Y-71563758D01*
X142044903Y-71536255D01*
X142044590Y-71528982D01*
X142069693Y-71476411D01*
X142134262Y-71432426D01*
X142222182Y-71406080D01*
X142269952Y-71402352D01*
X142352474Y-71417491D01*
G37*
G36*
X143367848Y-72362137D02*
G01*
X143378507Y-72399442D01*
X143356895Y-72446048D01*
X143301072Y-72509214D01*
X143224560Y-72577021D01*
X143140878Y-72637554D01*
X143063547Y-72678895D01*
X143059783Y-72680362D01*
X142956844Y-72705258D01*
X142854780Y-72694607D01*
X142752340Y-72656358D01*
X142639079Y-72593281D01*
X142567720Y-72527949D01*
X142544809Y-72470279D01*
X142564429Y-72436956D01*
X142611555Y-72434263D01*
X142668586Y-72460360D01*
X142697759Y-72486277D01*
X142758165Y-72530499D01*
X142840921Y-72566627D01*
X142854457Y-72570595D01*
X142956179Y-72581640D01*
X143050631Y-72552780D01*
X143149547Y-72479293D01*
X143196124Y-72433060D01*
X143267374Y-72373130D01*
X143327870Y-72348889D01*
X143367848Y-72362137D01*
G37*
G36*
X143246910Y-71437935D02*
G01*
X143249972Y-71438055D01*
X143352933Y-71444230D01*
X143432962Y-71452936D01*
X143474961Y-71462452D01*
X143477155Y-71463947D01*
X143485837Y-71505912D01*
X143463995Y-71560252D01*
X143423125Y-71602964D01*
X143406915Y-71610580D01*
X143348491Y-71611003D01*
X143269911Y-71591121D01*
X143252098Y-71584212D01*
X143158660Y-71550845D01*
X143092086Y-71548843D01*
X143030774Y-71582369D01*
X142969995Y-71638566D01*
X142898455Y-71704920D01*
X142852126Y-71732059D01*
X142821434Y-71724115D01*
X142808848Y-71708098D01*
X142809446Y-71662406D01*
X142841938Y-71597815D01*
X142895380Y-71530838D01*
X142958826Y-71477987D01*
X142963098Y-71475397D01*
X143027865Y-71449348D01*
X143117573Y-71437499D01*
X143246910Y-71437935D01*
G37*
G36*
X150965159Y-72041520D02*
G01*
X150965159Y-73180908D01*
X150742839Y-73180908D01*
X150520520Y-73180908D01*
X150519898Y-72548687D01*
X150519276Y-71916466D01*
X150233312Y-72220509D01*
X149947348Y-72524553D01*
X149651277Y-72220509D01*
X149355207Y-71916466D01*
X149354275Y-72548687D01*
X149353343Y-73180908D01*
X149144918Y-73180908D01*
X148936494Y-73180908D01*
X148936494Y-72041520D01*
X148936570Y-71760155D01*
X148936958Y-71529364D01*
X148937893Y-71344141D01*
X148939612Y-71199482D01*
X148942353Y-71090379D01*
X148946351Y-71011829D01*
X148951845Y-70958825D01*
X148959070Y-70926362D01*
X148968263Y-70909434D01*
X148979661Y-70903035D01*
X148990387Y-70902133D01*
X149028518Y-70923401D01*
X149099989Y-70986055D01*
X149203060Y-71088370D01*
X149335991Y-71228619D01*
X149493240Y-71400854D01*
X149942199Y-71899575D01*
X150390565Y-71400854D01*
X150545319Y-71230445D01*
X150668019Y-71099458D01*
X150762100Y-71004540D01*
X150831000Y-70942342D01*
X150878156Y-70909510D01*
X150902045Y-70902133D01*
X150965159Y-70902133D01*
X150965159Y-72041520D01*
G37*
G36*
X152804255Y-70954480D02*
G01*
X152868769Y-70968153D01*
X153007719Y-71001047D01*
X153000618Y-71153067D01*
X152992214Y-71283369D01*
X152979625Y-71366219D01*
X152959826Y-71409733D01*
X152929787Y-71422026D01*
X152902247Y-71416781D01*
X152845917Y-71405860D01*
X152752400Y-71394359D01*
X152640021Y-71384457D01*
X152617332Y-71382889D01*
X152493040Y-71377530D01*
X152402288Y-71382795D01*
X152323597Y-71401460D01*
X152248913Y-71430461D01*
X152084216Y-71528576D01*
X151962031Y-71661901D01*
X151883695Y-71828314D01*
X151850543Y-72025693D01*
X151849474Y-72064834D01*
X151872670Y-72258737D01*
X151941909Y-72429540D01*
X152052135Y-72570653D01*
X152198294Y-72675484D01*
X152363371Y-72734933D01*
X152457327Y-72749095D01*
X152539530Y-72750895D01*
X152564848Y-72747237D01*
X152593488Y-72738201D01*
X152612642Y-72721641D01*
X152624218Y-72687769D01*
X152630123Y-72626793D01*
X152632266Y-72528923D01*
X152632555Y-72399777D01*
X152632555Y-72069310D01*
X152855516Y-72069310D01*
X153078476Y-72069310D01*
X153070888Y-72562582D01*
X153063299Y-73055853D01*
X152882664Y-73117396D01*
X152673429Y-73165530D01*
X152448133Y-73177852D01*
X152229877Y-73154031D01*
X152129805Y-73128207D01*
X151910676Y-73030616D01*
X151724995Y-72891624D01*
X151576237Y-72716637D01*
X151467879Y-72511060D01*
X151403397Y-72280299D01*
X151386267Y-72029759D01*
X151388944Y-71976090D01*
X151428267Y-71732978D01*
X151511748Y-71520105D01*
X151642264Y-71330495D01*
X151666367Y-71303309D01*
X151847996Y-71144630D01*
X152060329Y-71028252D01*
X152295637Y-70956331D01*
X152546190Y-70931022D01*
X152804255Y-70954480D01*
G37*
G36*
X147661965Y-70910833D02*
G01*
X147697009Y-70981608D01*
X147744654Y-71087207D01*
X147801065Y-71219165D01*
X147854273Y-71348787D01*
X147918561Y-71507986D01*
X147998122Y-71704567D01*
X148087245Y-71924443D01*
X148180217Y-72153529D01*
X148271329Y-72377740D01*
X148318265Y-72493107D01*
X148598228Y-73180908D01*
X148352810Y-73180908D01*
X148107392Y-73180908D01*
X148059344Y-73055095D01*
X148011296Y-72929283D01*
X147635793Y-72936988D01*
X147260290Y-72944693D01*
X147217266Y-73062800D01*
X147174242Y-73180908D01*
X146927560Y-73180908D01*
X146819618Y-73178325D01*
X146737857Y-73171408D01*
X146694141Y-73161406D01*
X146690141Y-73155917D01*
X146731963Y-73046327D01*
X146788097Y-72904065D01*
X146855956Y-72735298D01*
X146932953Y-72546192D01*
X146949915Y-72504922D01*
X147435837Y-72504922D01*
X147461359Y-72509242D01*
X147528857Y-72512435D01*
X147624731Y-72513911D01*
X147643763Y-72513949D01*
X147851688Y-72513949D01*
X147754175Y-72244566D01*
X147712447Y-72131282D01*
X147677073Y-72038935D01*
X147652581Y-71979135D01*
X147644292Y-71962813D01*
X147627045Y-71976493D01*
X147602032Y-72026516D01*
X147600355Y-72030719D01*
X147576769Y-72093606D01*
X147545017Y-72181933D01*
X147510132Y-72281192D01*
X147477147Y-72376877D01*
X147451095Y-72454480D01*
X147437009Y-72499495D01*
X147435837Y-72504922D01*
X146949915Y-72504922D01*
X147016503Y-72342913D01*
X147104019Y-72131626D01*
X147192915Y-71918497D01*
X147280604Y-71709693D01*
X147364501Y-71511379D01*
X147442019Y-71329721D01*
X147510571Y-71170884D01*
X147567573Y-71041036D01*
X147610437Y-70946341D01*
X147636577Y-70892966D01*
X147643358Y-70883344D01*
X147661965Y-70910833D01*
G37*
G36*
X140916522Y-70970141D02*
G01*
X140916913Y-70970228D01*
X141025832Y-70996679D01*
X141089103Y-71018937D01*
X141115996Y-71041347D01*
X141117091Y-71064085D01*
X141107034Y-71116253D01*
X141094534Y-71202037D01*
X141085785Y-71272982D01*
X141073714Y-71363241D01*
X141059782Y-71409606D01*
X141037754Y-71423594D01*
X141007086Y-71418366D01*
X140818006Y-71372562D01*
X140670433Y-71355365D01*
X140558021Y-71367112D01*
X140474425Y-71408140D01*
X140433978Y-71448818D01*
X140384362Y-71543172D01*
X140388353Y-71632803D01*
X140446434Y-71718408D01*
X140559084Y-71800686D01*
X140726785Y-71880335D01*
X140732995Y-71882820D01*
X140906128Y-71968836D01*
X141056282Y-72076541D01*
X141171473Y-72196203D01*
X141225132Y-72282388D01*
X141272113Y-72442203D01*
X141271087Y-72608626D01*
X141226931Y-72771171D01*
X141144526Y-72919356D01*
X141028750Y-73042697D01*
X140884483Y-73130710D01*
X140819597Y-73153759D01*
X140677807Y-73177345D01*
X140506354Y-73180148D01*
X140326640Y-73163335D01*
X140160066Y-73128073D01*
X140120438Y-73115648D01*
X140026880Y-73082661D01*
X139956543Y-73055788D01*
X139923655Y-73040485D01*
X139923084Y-73039944D01*
X139921524Y-73008762D01*
X139926242Y-72936297D01*
X139936243Y-72836369D01*
X139940173Y-72802706D01*
X139967335Y-72577349D01*
X140081947Y-72640345D01*
X140197700Y-72690427D01*
X140333768Y-72729332D01*
X140469093Y-72752598D01*
X140582623Y-72755761D01*
X140609301Y-72752119D01*
X140722775Y-72709098D01*
X140803866Y-72635764D01*
X140835951Y-72566982D01*
X140829220Y-72481989D01*
X140769855Y-72398320D01*
X140660777Y-72318908D01*
X140524918Y-72254457D01*
X140310108Y-72152289D01*
X140147673Y-72036106D01*
X140035669Y-71903651D01*
X139972150Y-71752668D01*
X139954888Y-71593421D01*
X139980932Y-71397273D01*
X140050508Y-71232667D01*
X140159764Y-71102100D01*
X140304846Y-71008068D01*
X140481902Y-70953067D01*
X140687078Y-70939592D01*
X140916522Y-70970141D01*
G37*
G36*
X143513635Y-70894092D02*
G01*
X143674878Y-70947276D01*
X143823290Y-71024802D01*
X143883907Y-71068876D01*
X144006144Y-71204006D01*
X144091012Y-71370053D01*
X144136199Y-71554802D01*
X144139394Y-71746039D01*
X144098284Y-71931551D01*
X144062774Y-72013730D01*
X144019093Y-72080302D01*
X143944267Y-72173936D01*
X143844268Y-72288673D01*
X143725069Y-72418555D01*
X143592642Y-72557624D01*
X143452957Y-72699920D01*
X143311988Y-72839487D01*
X143175706Y-72970365D01*
X143050082Y-73086596D01*
X142941089Y-73182221D01*
X142854699Y-73251282D01*
X142796884Y-73287821D01*
X142781552Y-73292067D01*
X142750688Y-73282884D01*
X142703584Y-73253058D01*
X142636374Y-73199173D01*
X142545188Y-73117816D01*
X142426158Y-73005571D01*
X142275415Y-72859024D01*
X142144031Y-72729321D01*
X141953249Y-72538803D01*
X141799077Y-72380712D01*
X141677656Y-72249380D01*
X141585127Y-72139140D01*
X141517630Y-72044324D01*
X141471304Y-71959263D01*
X141442291Y-71878290D01*
X141426731Y-71795736D01*
X141420764Y-71705934D01*
X141420198Y-71666356D01*
X141420316Y-71665316D01*
X141594004Y-71665316D01*
X141598318Y-71744395D01*
X141612459Y-71818081D01*
X141640478Y-71892079D01*
X141686431Y-71972092D01*
X141754370Y-72063826D01*
X141848349Y-72172984D01*
X141972420Y-72305272D01*
X142130638Y-72466393D01*
X142242910Y-72578547D01*
X142768913Y-73101679D01*
X142955603Y-72936031D01*
X143038484Y-72859639D01*
X143148844Y-72753826D01*
X143275722Y-72629316D01*
X143408159Y-72496833D01*
X143498768Y-72404614D01*
X143656341Y-72238951D01*
X143776229Y-72102278D01*
X143862940Y-71987405D01*
X143920981Y-71887141D01*
X143954858Y-71794297D01*
X143969079Y-71701681D01*
X143970218Y-71652461D01*
X143942930Y-71481493D01*
X143870960Y-71330489D01*
X143762602Y-71206164D01*
X143626149Y-71115232D01*
X143469894Y-71064407D01*
X143302130Y-71060402D01*
X143250106Y-71069488D01*
X143129875Y-71104731D01*
X143029980Y-71157348D01*
X142929227Y-71239677D01*
X142886398Y-71281230D01*
X142823851Y-71337668D01*
X142780080Y-71357263D01*
X142739480Y-71346840D01*
X142738098Y-71346108D01*
X142694790Y-71312827D01*
X142683758Y-71291629D01*
X142660130Y-71251776D01*
X142598741Y-71201273D01*
X142513836Y-71149079D01*
X142419658Y-71104155D01*
X142346048Y-71079170D01*
X142169067Y-71059259D01*
X142002725Y-71088723D01*
X141854787Y-71161509D01*
X141733020Y-71271563D01*
X141645189Y-71412834D01*
X141599062Y-71579268D01*
X141594004Y-71665316D01*
X141420316Y-71665316D01*
X141444175Y-71454757D01*
X141516406Y-71269193D01*
X141634307Y-71113422D01*
X141795293Y-70991196D01*
X141927525Y-70929359D01*
X142036617Y-70897236D01*
X142148793Y-70877416D01*
X142197435Y-70874343D01*
X142332897Y-70891594D01*
X142483274Y-70937188D01*
X142622530Y-71001890D01*
X142696852Y-71051499D01*
X142779420Y-71117906D01*
X142868897Y-71049658D01*
X142998327Y-70972058D01*
X143151111Y-70911987D01*
X143301924Y-70878417D01*
X143363867Y-70874343D01*
X143513635Y-70894092D01*
G37*
D13*
%TO.C,R2*%
X121620000Y-79080000D02*
X125460000Y-79080000D01*
X121620000Y-80920000D02*
X125460000Y-80920000D01*
%TO.C,SW4*%
X157095000Y-111015000D02*
X171065000Y-111015000D01*
X157095000Y-124985000D02*
X157095000Y-111015000D01*
X171065000Y-111015000D02*
X171065000Y-124985000D01*
X171065000Y-124985000D02*
X157095000Y-124985000D01*
D14*
%TO.C,G\u002A\u002A\u002A*%
G36*
X139903428Y-85374571D02*
G01*
X139867142Y-85410856D01*
X139830856Y-85374571D01*
X139867142Y-85338285D01*
X139903428Y-85374571D01*
G37*
G36*
X140048571Y-88567714D02*
G01*
X140012285Y-88603999D01*
X139975999Y-88567714D01*
X140012285Y-88531428D01*
X140048571Y-88567714D01*
G37*
G36*
X143894856Y-87914571D02*
G01*
X143858571Y-87950856D01*
X143822285Y-87914571D01*
X143858571Y-87878285D01*
X143894856Y-87914571D01*
G37*
G36*
X146652571Y-83269999D02*
G01*
X146616285Y-83306285D01*
X146579999Y-83269999D01*
X146616285Y-83233713D01*
X146652571Y-83269999D01*
G37*
G36*
X147595999Y-85592285D02*
G01*
X147559714Y-85628571D01*
X147523428Y-85592285D01*
X147559714Y-85555999D01*
X147595999Y-85592285D01*
G37*
G36*
X151006856Y-83560285D02*
G01*
X150970571Y-83596571D01*
X150934285Y-83560285D01*
X150970571Y-83523999D01*
X151006856Y-83560285D01*
G37*
G36*
X141391142Y-82523468D02*
G01*
X141569613Y-82591594D01*
X141636341Y-82743075D01*
X141588677Y-82965532D01*
X141516190Y-83107877D01*
X141292476Y-83564507D01*
X141105051Y-84100484D01*
X140975393Y-84650771D01*
X140948686Y-84826419D01*
X140952522Y-85301823D01*
X141072198Y-85776518D01*
X141289887Y-86229774D01*
X141587758Y-86640863D01*
X141947985Y-86989055D01*
X142352739Y-87253621D01*
X142784190Y-87413833D01*
X143205428Y-87450315D01*
X143351152Y-87377486D01*
X143499333Y-87203688D01*
X143622829Y-86970046D01*
X143694497Y-86717685D01*
X143696001Y-86707050D01*
X143774571Y-86384425D01*
X143906226Y-86195115D01*
X144082214Y-86136571D01*
X144249541Y-86188906D01*
X144385726Y-86361925D01*
X144388089Y-86366293D01*
X144534127Y-86583655D01*
X144731860Y-86811591D01*
X144940800Y-87008657D01*
X145120457Y-87133412D01*
X145150212Y-87146374D01*
X145429099Y-87174307D01*
X145737219Y-87061828D01*
X146060131Y-86822888D01*
X146248276Y-86638506D01*
X146395010Y-86449041D01*
X146523895Y-86215504D01*
X146658492Y-85898908D01*
X146727079Y-85719285D01*
X146804874Y-85566161D01*
X146909298Y-85499638D01*
X147067928Y-85518254D01*
X147308338Y-85620547D01*
X147428847Y-85682087D01*
X147660193Y-85792516D01*
X147803008Y-85829185D01*
X147888980Y-85799658D01*
X147895529Y-85793498D01*
X147969744Y-85636461D01*
X148009482Y-85367140D01*
X148014249Y-85014361D01*
X147983546Y-84606951D01*
X147922891Y-84205169D01*
X147864294Y-83869705D01*
X147838635Y-83646535D01*
X147844564Y-83506918D01*
X147880729Y-83422111D01*
X147885768Y-83415765D01*
X148039872Y-83318977D01*
X148211050Y-83328609D01*
X148303324Y-83396999D01*
X148390507Y-83580864D01*
X148465083Y-83881942D01*
X148522684Y-84272540D01*
X148558942Y-84724962D01*
X148569470Y-85084285D01*
X148568929Y-85449213D01*
X148557552Y-85701376D01*
X148530845Y-85873012D01*
X148484316Y-85996360D01*
X148430571Y-86080886D01*
X148265586Y-86231046D01*
X148043290Y-86346557D01*
X147824331Y-86400911D01*
X147717586Y-86392496D01*
X147589907Y-86362791D01*
X147400625Y-86326826D01*
X147396627Y-86326133D01*
X147239648Y-86312503D01*
X147145881Y-86364536D01*
X147065234Y-86515230D01*
X147048107Y-86555710D01*
X146942686Y-86732511D01*
X146762450Y-86963089D01*
X146541330Y-87205094D01*
X146475745Y-87270070D01*
X146230059Y-87497286D01*
X146042000Y-87639462D01*
X145873139Y-87720370D01*
X145685046Y-87763783D01*
X145675205Y-87765282D01*
X145238271Y-87787978D01*
X144875223Y-87704899D01*
X144552235Y-87507558D01*
X144511714Y-87473320D01*
X144339418Y-87331135D01*
X144238647Y-87278048D01*
X144176682Y-87302166D01*
X144148856Y-87341402D01*
X143855989Y-87715861D01*
X143509401Y-87968034D01*
X143126042Y-88092310D01*
X142722862Y-88083079D01*
X142331772Y-87942807D01*
X142095826Y-87817258D01*
X141871967Y-87698412D01*
X141829102Y-87675704D01*
X141663918Y-87561965D01*
X141455637Y-87382119D01*
X141231078Y-87164312D01*
X141017059Y-86936688D01*
X140840398Y-86727391D01*
X140727913Y-86564568D01*
X140701713Y-86492550D01*
X140672060Y-86362634D01*
X140641432Y-86325595D01*
X140580836Y-86223891D01*
X140519229Y-86015839D01*
X140463715Y-85740007D01*
X140421397Y-85434963D01*
X140399379Y-85139275D01*
X140398239Y-85005262D01*
X140485701Y-84255531D01*
X140716660Y-83488622D01*
X140897512Y-83074482D01*
X141033401Y-82799721D01*
X141130986Y-82632200D01*
X141212410Y-82547200D01*
X141299815Y-82520005D01*
X141391142Y-82523468D01*
G37*
G36*
X138856683Y-74972354D02*
G01*
X139545524Y-75075001D01*
X140170730Y-75276137D01*
X140372665Y-75371530D01*
X140580866Y-75494800D01*
X140835016Y-75666216D01*
X141095446Y-75856506D01*
X141322489Y-76036400D01*
X141476476Y-76176623D01*
X141499999Y-76203407D01*
X141564417Y-76288617D01*
X141672005Y-76434428D01*
X141681428Y-76447306D01*
X141806475Y-76611128D01*
X141906392Y-76730439D01*
X141907874Y-76732018D01*
X142055954Y-76951447D01*
X142217576Y-77307422D01*
X142378223Y-77758168D01*
X142519118Y-78404793D01*
X142548612Y-79099130D01*
X142470593Y-79800709D01*
X142288947Y-80469062D01*
X142071429Y-80952993D01*
X141837883Y-81323500D01*
X141548098Y-81701473D01*
X141235730Y-82048206D01*
X140934436Y-82324990D01*
X140782434Y-82435428D01*
X140617964Y-82550919D01*
X140516576Y-82634999D01*
X140413892Y-82712644D01*
X140377299Y-82725713D01*
X140294845Y-82755162D01*
X140118075Y-82832927D01*
X139882853Y-82943134D01*
X139845973Y-82960889D01*
X139633344Y-83059763D01*
X139454923Y-83126699D01*
X139272799Y-83168408D01*
X139049062Y-83191604D01*
X138745802Y-83202999D01*
X138451999Y-83207730D01*
X138086869Y-83209698D01*
X137760406Y-83206466D01*
X137507900Y-83198711D01*
X137364644Y-83187108D01*
X137363428Y-83186894D01*
X137150927Y-83133675D01*
X136890653Y-83047134D01*
X136617303Y-82941791D01*
X136365574Y-82832167D01*
X136170162Y-82732782D01*
X136065764Y-82658158D01*
X136057142Y-82640206D01*
X135998305Y-82586996D01*
X135950134Y-82580571D01*
X135831206Y-82526551D01*
X135650100Y-82381465D01*
X135431175Y-82170768D01*
X135198789Y-81919919D01*
X134977301Y-81654373D01*
X134791069Y-81399589D01*
X134733535Y-81309104D01*
X134430455Y-80671043D01*
X134242987Y-79972613D01*
X134173285Y-79243965D01*
X134180903Y-79133428D01*
X134723646Y-79133428D01*
X134732703Y-79641928D01*
X134757660Y-80022510D01*
X134800935Y-80291769D01*
X134864948Y-80466302D01*
X134929531Y-80546285D01*
X134981269Y-80561603D01*
X134998717Y-80476736D01*
X134986142Y-80270495D01*
X134985788Y-80266794D01*
X134984019Y-79989848D01*
X136146252Y-79989848D01*
X136182834Y-80116250D01*
X136312178Y-80175162D01*
X136365246Y-80172661D01*
X136512158Y-80090144D01*
X136552089Y-79985818D01*
X136522298Y-79832961D01*
X136410913Y-79766770D01*
X136265571Y-79807832D01*
X136223020Y-79843591D01*
X136146252Y-79989848D01*
X134984019Y-79989848D01*
X134984013Y-79988951D01*
X135020429Y-79717934D01*
X135041122Y-79641488D01*
X135159019Y-79404126D01*
X135340189Y-79167896D01*
X135549987Y-78967446D01*
X135753767Y-78837422D01*
X135875714Y-78806856D01*
X136025880Y-78836521D01*
X136041943Y-78919420D01*
X135948285Y-79024571D01*
X135855154Y-79183597D01*
X135853609Y-79380086D01*
X135926514Y-79518056D01*
X136097144Y-79598710D01*
X136305557Y-79587625D01*
X136483833Y-79492527D01*
X136520056Y-79450541D01*
X136593453Y-79357645D01*
X136650399Y-79356749D01*
X136728598Y-79461116D01*
X136777900Y-79541255D01*
X136891875Y-79745797D01*
X136921742Y-79856567D01*
X136872116Y-79894661D01*
X136855428Y-79895428D01*
X136782763Y-79931156D01*
X136808970Y-80010711D01*
X136915468Y-80092644D01*
X136950714Y-80107982D01*
X137106582Y-80242104D01*
X137204714Y-80459320D01*
X137283840Y-80819757D01*
X137266285Y-81084129D01*
X137142732Y-81272277D01*
X136903865Y-81404042D01*
X136737040Y-81455302D01*
X136276051Y-81511591D01*
X135856136Y-81429209D01*
X135472593Y-81207220D01*
X135466487Y-81202336D01*
X135173855Y-80967171D01*
X135288769Y-81189390D01*
X135517622Y-81519064D01*
X135850708Y-81852248D01*
X136251036Y-82158953D01*
X136681616Y-82409193D01*
X136922129Y-82513472D01*
X137589509Y-82699541D01*
X138269484Y-82756463D01*
X138988027Y-82685670D01*
X139213999Y-82639965D01*
X139566248Y-82527869D01*
X139962827Y-82350378D01*
X140348833Y-82136127D01*
X140669361Y-81913748D01*
X140764223Y-81831511D01*
X141268917Y-81265540D01*
X141650060Y-80647595D01*
X141905457Y-79992838D01*
X142032908Y-79316434D01*
X142030216Y-78633546D01*
X141895184Y-77959339D01*
X141625613Y-77308976D01*
X141460298Y-77028856D01*
X141195021Y-76657655D01*
X140920091Y-76364593D01*
X140584046Y-76098711D01*
X140388388Y-75967368D01*
X139758642Y-75644056D01*
X139086519Y-75455095D01*
X138386368Y-75401239D01*
X137672538Y-75483244D01*
X136959379Y-75701861D01*
X136782856Y-75777958D01*
X136187897Y-76128184D01*
X135665888Y-76596461D01*
X135229703Y-77168716D01*
X134892215Y-77830876D01*
X134882238Y-77855787D01*
X134809656Y-78061783D01*
X134762433Y-78268095D01*
X134735718Y-78513793D01*
X134724662Y-78837946D01*
X134723646Y-79133428D01*
X134180903Y-79133428D01*
X134223506Y-78515251D01*
X134395806Y-77816624D01*
X134469913Y-77621539D01*
X134660740Y-77241401D01*
X134922707Y-76827072D01*
X135217932Y-76432827D01*
X135508532Y-76112938D01*
X135549926Y-76074227D01*
X135944617Y-75767866D01*
X136417261Y-75482005D01*
X136913010Y-75245801D01*
X137377015Y-75088412D01*
X137426953Y-75076434D01*
X138138921Y-74971672D01*
X138856683Y-74972354D01*
G37*
G36*
X138260685Y-73531782D02*
G01*
X138608191Y-73561698D01*
X138709193Y-73576944D01*
X139286553Y-73704452D01*
X139905040Y-73895726D01*
X140585265Y-74158363D01*
X141347840Y-74499964D01*
X141776704Y-74707826D01*
X142809089Y-75205784D01*
X143735292Y-75623184D01*
X144567129Y-75963986D01*
X145316414Y-76232150D01*
X145994962Y-76431637D01*
X146614587Y-76566407D01*
X147187105Y-76640421D01*
X147595999Y-76658463D01*
X147951152Y-76654508D01*
X148207017Y-76632865D01*
X148409074Y-76586322D01*
X148602798Y-76507667D01*
X148630230Y-76494470D01*
X148955629Y-76298576D01*
X149201463Y-76055822D01*
X149379574Y-75743799D01*
X149501804Y-75340096D01*
X149579995Y-74822306D01*
X149594230Y-74670285D01*
X149647822Y-74285140D01*
X149732452Y-74041214D01*
X149849852Y-73937574D01*
X150001750Y-73973287D01*
X150189878Y-74147418D01*
X150300376Y-74289285D01*
X150977476Y-75340028D01*
X151517518Y-76429030D01*
X151918451Y-77551503D01*
X152171505Y-78661714D01*
X152224715Y-79122671D01*
X152252402Y-79677939D01*
X152255183Y-80279061D01*
X152233673Y-80877577D01*
X152188488Y-81425028D01*
X152131438Y-81816590D01*
X151998223Y-82398993D01*
X151817818Y-83013058D01*
X151603622Y-83623391D01*
X151369036Y-84194600D01*
X151127460Y-84691291D01*
X150901604Y-85064875D01*
X150834530Y-85159910D01*
X150792188Y-85235522D01*
X150788751Y-85297488D01*
X150838394Y-85351583D01*
X150955292Y-85403583D01*
X151153616Y-85459265D01*
X151447543Y-85524404D01*
X151851246Y-85604775D01*
X152378898Y-85706155D01*
X152560898Y-85741034D01*
X153006910Y-85831598D01*
X153325031Y-85909873D01*
X153531297Y-85982321D01*
X153641745Y-86055403D01*
X153672410Y-86135579D01*
X153661323Y-86184407D01*
X153609151Y-86278050D01*
X153492108Y-86467061D01*
X153326158Y-86726261D01*
X153127267Y-87030469D01*
X153070551Y-87116208D01*
X152800562Y-87508995D01*
X152594548Y-87776085D01*
X152449837Y-87920721D01*
X152382421Y-87950856D01*
X152231942Y-87888792D01*
X152147161Y-87736608D01*
X152149667Y-87577692D01*
X152161722Y-87474441D01*
X152110042Y-87455210D01*
X151976174Y-87522449D01*
X151826052Y-87620670D01*
X151630727Y-87732062D01*
X151492800Y-87750046D01*
X151430759Y-87726974D01*
X151308081Y-87624594D01*
X151301809Y-87501965D01*
X151417344Y-87348329D01*
X151660089Y-87152931D01*
X151750713Y-87089866D01*
X151937571Y-86952322D01*
X152062755Y-86840255D01*
X152095428Y-86790608D01*
X152031255Y-86743628D01*
X151872199Y-86708420D01*
X151823888Y-86703380D01*
X151602633Y-86653983D01*
X151516567Y-86557231D01*
X151565611Y-86418398D01*
X151749690Y-86242757D01*
X151831472Y-86183512D01*
X151874584Y-86139804D01*
X151849804Y-86101791D01*
X151738114Y-86062788D01*
X151520500Y-86016109D01*
X151185093Y-85956295D01*
X150403527Y-85822330D01*
X150183289Y-86106451D01*
X149882939Y-86456328D01*
X149498904Y-86848529D01*
X149069918Y-87247401D01*
X148634715Y-87617292D01*
X148232029Y-87922550D01*
X148147390Y-87980331D01*
X147207559Y-88549239D01*
X146276497Y-88993535D01*
X145319866Y-89327201D01*
X144303327Y-89564219D01*
X144221730Y-89578838D01*
X143658384Y-89646920D01*
X143014627Y-89673610D01*
X142328577Y-89661439D01*
X141638350Y-89612941D01*
X140982062Y-89530646D01*
X140397830Y-89417086D01*
X139985018Y-89297396D01*
X139782287Y-89229841D01*
X139637036Y-89189543D01*
X139604624Y-89184571D01*
X139549220Y-89245457D01*
X139444487Y-89411338D01*
X139305321Y-89657049D01*
X139146615Y-89957424D01*
X139142885Y-89964714D01*
X138825278Y-90581911D01*
X138563819Y-91079995D01*
X138351528Y-91470551D01*
X138181424Y-91765160D01*
X138046528Y-91975407D01*
X137939858Y-92112873D01*
X137854435Y-92189143D01*
X137786511Y-92215476D01*
X137657064Y-92194487D01*
X137427922Y-92123225D01*
X137130944Y-92012738D01*
X136797987Y-91874074D01*
X136782856Y-91867431D01*
X136419241Y-91709181D01*
X136062709Y-91557052D01*
X135756468Y-91429308D01*
X135558954Y-91350052D01*
X135229560Y-91196826D01*
X135017404Y-91039811D01*
X134933173Y-90888215D01*
X134941936Y-90818447D01*
X135058451Y-90697473D01*
X135265470Y-90671458D01*
X135542636Y-90741677D01*
X135623518Y-90775782D01*
X135893396Y-90886331D01*
X136041926Y-90918246D01*
X136068855Y-90871628D01*
X135973927Y-90746579D01*
X135893856Y-90667085D01*
X135716194Y-90488376D01*
X135638776Y-90368173D01*
X135650375Y-90272030D01*
X135732671Y-90172552D01*
X135846230Y-90103583D01*
X135983819Y-90121138D01*
X136168569Y-90234146D01*
X136400235Y-90430238D01*
X136631750Y-90621471D01*
X136784022Y-90704619D01*
X136852115Y-90677291D01*
X136855428Y-90650514D01*
X136810125Y-90553286D01*
X136773655Y-90510684D01*
X136726983Y-90379088D01*
X136739935Y-90237458D01*
X136807906Y-90095683D01*
X136932703Y-90066875D01*
X136948707Y-90068859D01*
X137055580Y-90122973D01*
X137178770Y-90268206D01*
X137332483Y-90523031D01*
X137411039Y-90670013D01*
X137552798Y-90929625D01*
X137676828Y-91134825D01*
X137763958Y-91254797D01*
X137786033Y-91272772D01*
X137849681Y-91223816D01*
X137960292Y-91072214D01*
X138099398Y-90844881D01*
X138182888Y-90694473D01*
X138455427Y-90185540D01*
X138665658Y-89790112D01*
X138820714Y-89494245D01*
X138927731Y-89283991D01*
X138993843Y-89145406D01*
X139026184Y-89064541D01*
X139032571Y-89033561D01*
X138971961Y-88974488D01*
X138809562Y-88870637D01*
X138574515Y-88739865D01*
X138440428Y-88670753D01*
X138132356Y-88511010D01*
X137835298Y-88348763D01*
X137601288Y-88212658D01*
X137551428Y-88181379D01*
X136934496Y-87736712D01*
X136314878Y-87205722D01*
X135729933Y-86624783D01*
X135217020Y-86030266D01*
X134910764Y-85610428D01*
X134746992Y-85382191D01*
X134601586Y-85210658D01*
X134500108Y-85125122D01*
X134483318Y-85120571D01*
X134359427Y-85151872D01*
X134170131Y-85230329D01*
X134097713Y-85265714D01*
X133798394Y-85389630D01*
X133595104Y-85408324D01*
X133489934Y-85322736D01*
X133484974Y-85133805D01*
X133519215Y-85005432D01*
X133567708Y-84832043D01*
X133580187Y-84728785D01*
X133576815Y-84720625D01*
X133504190Y-84738219D01*
X133336056Y-84809385D01*
X133105256Y-84919930D01*
X133043440Y-84951125D01*
X132708145Y-85121908D01*
X132338910Y-85309856D01*
X132053450Y-85455065D01*
X131705966Y-85616668D01*
X131460557Y-85693617D01*
X131316531Y-85682353D01*
X131273193Y-85579320D01*
X131329849Y-85380962D01*
X131485806Y-85083721D01*
X131740369Y-84684041D01*
X131866887Y-84498678D01*
X132129496Y-84117796D01*
X132407778Y-83711538D01*
X132669429Y-83327212D01*
X132882144Y-83012128D01*
X132891548Y-82998096D01*
X133316751Y-82363336D01*
X133056632Y-82075416D01*
X132700055Y-81584061D01*
X132453587Y-81034554D01*
X132326263Y-80456858D01*
X132326603Y-80227518D01*
X132496662Y-80227518D01*
X132544736Y-80675998D01*
X132628866Y-81018024D01*
X132740099Y-81303191D01*
X132905106Y-81588885D01*
X133092622Y-81854856D01*
X133229760Y-82034432D01*
X133305603Y-82107980D01*
X133342391Y-82088167D01*
X133359628Y-82006940D01*
X133332184Y-81838851D01*
X133183925Y-81675208D01*
X133170604Y-81664638D01*
X132939486Y-81398393D01*
X132816746Y-81069543D01*
X132805801Y-80715731D01*
X132910069Y-80374601D01*
X133036132Y-80183526D01*
X133196276Y-79901149D01*
X133227405Y-79690288D01*
X133242329Y-79436860D01*
X133283421Y-79075745D01*
X133346319Y-78641154D01*
X133408965Y-78266068D01*
X133446800Y-78051851D01*
X133233845Y-78255875D01*
X132919388Y-78649633D01*
X132684708Y-79134069D01*
X132540300Y-79672319D01*
X132496662Y-80227518D01*
X132326603Y-80227518D01*
X132327118Y-79880933D01*
X132350021Y-79732142D01*
X132511290Y-79165731D01*
X132765302Y-78633992D01*
X133088680Y-78183147D01*
X133184996Y-78081142D01*
X133355571Y-77904247D01*
X133475080Y-77765626D01*
X133515684Y-77700142D01*
X133454786Y-77658954D01*
X133339015Y-77645713D01*
X133181660Y-77621354D01*
X132941821Y-77557558D01*
X132677247Y-77470162D01*
X132198165Y-77240219D01*
X131837147Y-76946156D01*
X131600017Y-76597763D01*
X131492596Y-76204826D01*
X131503204Y-76043439D01*
X131994253Y-76043439D01*
X132006602Y-76241230D01*
X132063235Y-76392292D01*
X132191047Y-76550335D01*
X132304125Y-76662282D01*
X132667919Y-76931960D01*
X133101745Y-77101276D01*
X133618882Y-77179526D01*
X133842560Y-77208176D01*
X134007759Y-77254002D01*
X134051045Y-77279731D01*
X134076550Y-77374299D01*
X134065528Y-77578592D01*
X134016892Y-77903707D01*
X133960005Y-78208504D01*
X133847197Y-78850480D01*
X133777145Y-79435136D01*
X133749583Y-80000866D01*
X133764245Y-80586064D01*
X133820865Y-81229125D01*
X133919177Y-81968442D01*
X133933302Y-82062418D01*
X133918011Y-82273161D01*
X133838859Y-82534272D01*
X133720630Y-82781189D01*
X133595126Y-82943428D01*
X133573124Y-82965434D01*
X133538220Y-83008785D01*
X133478174Y-83090729D01*
X133380747Y-83228513D01*
X133233698Y-83439383D01*
X133024789Y-83740586D01*
X132839290Y-84008493D01*
X132632627Y-84314825D01*
X132494727Y-84536004D01*
X132429973Y-84663654D01*
X132442744Y-84689401D01*
X132515656Y-84627085D01*
X132646787Y-84549579D01*
X132701060Y-84539999D01*
X132806957Y-84504394D01*
X132997919Y-84410166D01*
X133236293Y-84276197D01*
X133284466Y-84247429D01*
X133713865Y-84007410D01*
X134041517Y-83867925D01*
X134270415Y-83829026D01*
X134403551Y-83890768D01*
X134443919Y-84053204D01*
X134408301Y-84267596D01*
X134372830Y-84445867D01*
X134365328Y-84581735D01*
X134382477Y-84645054D01*
X134420961Y-84605681D01*
X134440268Y-84558142D01*
X134529392Y-84488348D01*
X134649511Y-84467428D01*
X134757098Y-84493928D01*
X134872158Y-84588033D01*
X135016105Y-84771650D01*
X135163795Y-84993571D01*
X135841692Y-85920003D01*
X136617903Y-86743535D01*
X137483665Y-87457889D01*
X138430217Y-88056792D01*
X139448795Y-88533968D01*
X140530639Y-88883143D01*
X140629142Y-88907670D01*
X141471876Y-89061373D01*
X142371471Y-89134412D01*
X143272898Y-89125249D01*
X144121131Y-89032346D01*
X144251603Y-89008968D01*
X144800484Y-88886908D01*
X145362541Y-88730629D01*
X145904291Y-88551810D01*
X146392255Y-88362131D01*
X146792950Y-88173268D01*
X146999809Y-88050374D01*
X147173191Y-87943077D01*
X147299980Y-87882955D01*
X147322933Y-87878285D01*
X147424855Y-87835375D01*
X147611347Y-87720006D01*
X147855131Y-87552216D01*
X148128926Y-87352044D01*
X148405454Y-87139530D01*
X148657435Y-86934712D01*
X148857590Y-86757630D01*
X148886734Y-86729536D01*
X149116546Y-86490067D01*
X149400874Y-86173467D01*
X149706557Y-85818278D01*
X150000438Y-85463041D01*
X150249357Y-85146295D01*
X150252793Y-85141751D01*
X150380488Y-84950213D01*
X150521326Y-84707122D01*
X150570970Y-84612571D01*
X150679452Y-84415134D01*
X150771778Y-84276196D01*
X150805089Y-84241600D01*
X150868621Y-84165662D01*
X150870091Y-84151819D01*
X150894092Y-84064035D01*
X150959703Y-83891213D01*
X151006854Y-83778004D01*
X151402647Y-82682107D01*
X151659587Y-81572115D01*
X151777935Y-80458028D01*
X151757952Y-79349849D01*
X151599898Y-78257577D01*
X151304034Y-77191213D01*
X150870623Y-76160759D01*
X150804729Y-76030999D01*
X150659922Y-75761685D01*
X150535579Y-75549038D01*
X150448530Y-75420863D01*
X150420333Y-75395999D01*
X150363911Y-75334319D01*
X150295025Y-75181974D01*
X150281142Y-75141999D01*
X150196742Y-74949692D01*
X150125066Y-74899533D01*
X150077180Y-74990171D01*
X150063428Y-75168607D01*
X150032798Y-75399418D01*
X149953782Y-75686995D01*
X149845687Y-75977441D01*
X149727819Y-76216861D01*
X149648643Y-76326469D01*
X149569156Y-76431719D01*
X149555288Y-76471611D01*
X149496213Y-76547189D01*
X149345400Y-76661489D01*
X149142051Y-76790616D01*
X148925372Y-76910678D01*
X148734566Y-76997783D01*
X148648285Y-77024392D01*
X148403243Y-77073759D01*
X148212856Y-77111905D01*
X147700696Y-77166038D01*
X147110555Y-77137902D01*
X146437667Y-77026059D01*
X145677263Y-76829069D01*
X144824578Y-76545493D01*
X143874842Y-76173894D01*
X142823290Y-75712833D01*
X141665153Y-75160871D01*
X141536285Y-75097143D01*
X141135633Y-74899910D01*
X140778520Y-74727035D01*
X140485534Y-74588246D01*
X140277262Y-74493270D01*
X140174292Y-74451835D01*
X140168395Y-74450816D01*
X140065180Y-74425256D01*
X139896175Y-74360622D01*
X139878110Y-74352830D01*
X139391150Y-74184877D01*
X138821493Y-74059209D01*
X138218513Y-73981579D01*
X137631585Y-73957743D01*
X137110081Y-73993453D01*
X136981039Y-74015195D01*
X136541158Y-74151431D01*
X136099514Y-74373967D01*
X135708476Y-74652344D01*
X135465984Y-74896372D01*
X135244859Y-75161712D01*
X135087630Y-75325906D01*
X134972831Y-75405195D01*
X134878995Y-75415822D01*
X134812996Y-75390416D01*
X134703663Y-75304639D01*
X134678285Y-75253027D01*
X134654446Y-75143367D01*
X134600612Y-74983438D01*
X134546743Y-74834441D01*
X134526171Y-74762752D01*
X134526176Y-74762727D01*
X134484445Y-74704614D01*
X134377484Y-74582577D01*
X134352453Y-74555368D01*
X134228147Y-74434522D01*
X134146864Y-74413604D01*
X134059685Y-74480232D01*
X134058848Y-74481069D01*
X133991465Y-74570080D01*
X134003041Y-74597713D01*
X134039486Y-74663327D01*
X134069080Y-74832351D01*
X134081329Y-74991139D01*
X134063922Y-75287159D01*
X133993103Y-75487700D01*
X133886240Y-75582009D01*
X133760701Y-75559333D01*
X133633855Y-75408919D01*
X133582335Y-75300070D01*
X133453749Y-75064420D01*
X133311255Y-74965818D01*
X133275325Y-74961682D01*
X133250382Y-75027955D01*
X133236556Y-75205444D01*
X133235890Y-75460503D01*
X133239039Y-75559285D01*
X133263142Y-76157999D01*
X133068452Y-76180491D01*
X132880739Y-76152473D01*
X132800646Y-76066367D01*
X132699187Y-75945305D01*
X132525109Y-75793811D01*
X132427475Y-75721811D01*
X132224804Y-75602341D01*
X132095168Y-75589486D01*
X132023895Y-75694141D01*
X131996310Y-75927199D01*
X131994253Y-76043439D01*
X131503204Y-76043439D01*
X131520708Y-75777135D01*
X131568522Y-75606400D01*
X131687255Y-75340685D01*
X131841008Y-75185524D01*
X132054924Y-75131081D01*
X132354147Y-75167517D01*
X132555571Y-75220210D01*
X132665870Y-75236183D01*
X132710857Y-75172384D01*
X132718856Y-75021468D01*
X132771289Y-74734318D01*
X132791491Y-74706571D01*
X133081713Y-74706571D01*
X133117999Y-74742856D01*
X133154285Y-74706571D01*
X133879999Y-74706571D01*
X133916285Y-74742856D01*
X133952571Y-74706571D01*
X133916285Y-74670285D01*
X133879999Y-74706571D01*
X133154285Y-74706571D01*
X133117999Y-74670285D01*
X133081713Y-74706571D01*
X132791491Y-74706571D01*
X132913077Y-74539575D01*
X133120958Y-74453177D01*
X133371670Y-74491064D01*
X133443842Y-74524752D01*
X133537587Y-74552189D01*
X133602695Y-74490106D01*
X133664793Y-74325181D01*
X133749679Y-74124324D01*
X133848256Y-73978524D01*
X133865592Y-73962713D01*
X134002896Y-73897464D01*
X134161222Y-73873802D01*
X134282894Y-73894680D01*
X134315428Y-73939680D01*
X134375347Y-74013285D01*
X134461363Y-74053679D01*
X134585741Y-74142782D01*
X134724039Y-74311248D01*
X134769792Y-74384582D01*
X134892336Y-74558721D01*
X135007882Y-74659398D01*
X135089952Y-74669877D01*
X135113714Y-74601955D01*
X135168892Y-74526012D01*
X135312472Y-74395606D01*
X135511519Y-74235922D01*
X135733099Y-74072148D01*
X135944278Y-73929470D01*
X136112122Y-73833076D01*
X136129714Y-73824960D01*
X136334384Y-73736122D01*
X136528856Y-73653328D01*
X136743391Y-73597461D01*
X137063163Y-73555995D01*
X137448849Y-73530308D01*
X137861130Y-73521778D01*
X138260685Y-73531782D01*
G37*
D15*
%TO.C,D3*%
X119000000Y-98434000D02*
X119000000Y-101566000D01*
X119000000Y-98434000D02*
G75*
G02*
X119000000Y-101566000I2506124J-1566000D01*
G01*
D16*
X118400000Y-100000000D02*
G75*
G02*
X118200000Y-100000000I-100000J0D01*
G01*
X118200000Y-100000000D02*
G75*
G02*
X118400000Y-100000000I100000J0D01*
G01*
D13*
%TO.C,R1*%
X121700000Y-75080000D02*
X125540000Y-75080000D01*
X121700000Y-76920000D02*
X125540000Y-76920000D01*
D15*
%TO.C,D1*%
X98730000Y-98434000D02*
X98730000Y-101566000D01*
X98730000Y-98434000D02*
G75*
G02*
X98730000Y-101566000I2506124J-1566000D01*
G01*
D16*
X98130000Y-100000000D02*
G75*
G02*
X97930000Y-100000000I-100000J0D01*
G01*
X97930000Y-100000000D02*
G75*
G02*
X98130000Y-100000000I100000J0D01*
G01*
D13*
%TO.C,R4*%
X121620000Y-87080000D02*
X125460000Y-87080000D01*
X121620000Y-88920000D02*
X125460000Y-88920000D01*
D11*
%TO.C,BZ1*%
X171000000Y-82500000D02*
G75*
G02*
X159000000Y-82500000I-6000000J0D01*
G01*
X159000000Y-82500000D02*
G75*
G02*
X171000000Y-82500000I6000000J0D01*
G01*
D15*
%TO.C,U1*%
X92317500Y-85991272D02*
X92317500Y-77996000D01*
X92817500Y-77496000D02*
X93727500Y-77496000D01*
D11*
X93727500Y-75015000D02*
X93727500Y-88985000D01*
D15*
X93727500Y-75015000D02*
X93727500Y-88985000D01*
X93727500Y-86495000D02*
X92817228Y-86491272D01*
X112777500Y-73110000D02*
X95632500Y-73110000D01*
X112777500Y-90890000D02*
X95632500Y-90890000D01*
X114682500Y-88985000D02*
X114682500Y-75015000D01*
X92317500Y-77996000D02*
G75*
G02*
X92817500Y-77496000I500000J0D01*
G01*
X92817228Y-86491272D02*
G75*
G02*
X92317501Y-85991272I291J500018D01*
G01*
X93727500Y-75015000D02*
G75*
G02*
X95632500Y-73110000I1905000J0D01*
G01*
X95632500Y-90890000D02*
G75*
G02*
X93727500Y-88985000I1J1905001D01*
G01*
X112777500Y-73110000D02*
G75*
G02*
X114682500Y-75015000I0J-1905000D01*
G01*
X114682500Y-88985000D02*
G75*
G02*
X112777500Y-90890000I-1905001J1D01*
G01*
D17*
X94220500Y-90950000D02*
G75*
G02*
X93716500Y-90950000I-252000J0D01*
G01*
X93716500Y-90950000D02*
G75*
G02*
X94220500Y-90950000I252000J0D01*
G01*
X95100500Y-89807000D02*
G75*
G02*
X94596500Y-89807000I-252000J0D01*
G01*
X94596500Y-89807000D02*
G75*
G02*
X95100500Y-89807000I252000J0D01*
G01*
D15*
%TO.C,D4*%
X141000000Y-98434000D02*
X141000000Y-101566000D01*
X141000000Y-98434000D02*
G75*
G02*
X141000000Y-101566000I2506124J-1566000D01*
G01*
D16*
X140400000Y-100000000D02*
G75*
G02*
X140200000Y-100000000I-100000J0D01*
G01*
X140200000Y-100000000D02*
G75*
G02*
X140400000Y-100000000I100000J0D01*
G01*
D13*
%TO.C,R3*%
X121700000Y-83080000D02*
X125540000Y-83080000D01*
X121700000Y-84920000D02*
X125540000Y-84920000D01*
D15*
%TO.C,D2*%
X162000000Y-98434000D02*
X162000000Y-101566000D01*
X162000000Y-98434000D02*
G75*
G02*
X162000000Y-101566000I2506124J-1566000D01*
G01*
D16*
X161400000Y-100000000D02*
G75*
G02*
X161200000Y-100000000I-100000J0D01*
G01*
X161200000Y-100000000D02*
G75*
G02*
X161400000Y-100000000I100000J0D01*
G01*
D13*
%TO.C,SW3*%
X114595000Y-111015000D02*
X128565000Y-111015000D01*
X114595000Y-124985000D02*
X114595000Y-111015000D01*
X128565000Y-111015000D02*
X128565000Y-124985000D01*
X128565000Y-124985000D02*
X114595000Y-124985000D01*
%TO.C,SW2*%
X93595000Y-111015000D02*
X107565000Y-111015000D01*
X93595000Y-124985000D02*
X93595000Y-111015000D01*
X107565000Y-111015000D02*
X107565000Y-124985000D01*
X107565000Y-124985000D02*
X93595000Y-124985000D01*
%TD*%
M02*
