M48
; DRILL file {KiCad 9.0.2} date 2025-07-04T18:03:50-0300
; FORMAT={-:-/ absolute / metric / decimal}
; #@! TF.CreationDate,2025-07-04T18:03:50-03:00
; #@! TF.GenerationSoftware,Kicad,Pcbnew,9.0.2
; #@! TF.FileFunction,Plated,1,2,PTH
FMAT,2
METRIC
; #@! TA.AperFunction,Plated,PTH,ViaDrill
T1C0.300
; #@! TA.AperFunction,Plated,PTH,ComponentDrill
T2C0.700
; #@! TA.AperFunction,Plated,PTH,ComponentDrill
T3C0.800
; #@! TA.AperFunction,Plated,PTH,ComponentDrill
T4C0.889
; #@! TA.AperFunction,Plated,PTH,ComponentDrill
T5C1.210
; #@! TA.AperFunction,Plated,PTH,ComponentDrill
T6C1.500
; #@! TA.AperFunction,Plated,PTH,ViaDrill
T7C5.000
%
G90
G05
T1
X98.0Y-99.5
X109.0Y-82.6
X109.0Y-113.0
X114.0Y-76.0
X114.0Y-100.0
X117.5Y-84.0
X117.5Y-100.5
X124.0Y-91.0
X129.5Y-86.0
X129.5Y-101.5
X142.23Y-115.23
X147.0Y-92.5
X166.0Y-78.5
X168.0Y-74.5
T2
X121.0Y-80.0
X121.0Y-88.0
X121.08Y-76.0
X121.08Y-84.0
X126.08Y-80.0
X126.08Y-88.0
X126.16Y-76.0
X126.16Y-84.0
T3
X161.75Y-82.5
X168.25Y-82.5
T4
X96.648Y-74.38
X96.648Y-89.62
X99.188Y-74.38
X99.188Y-89.62
X101.728Y-74.38
X101.728Y-89.62
X104.268Y-74.38
X104.268Y-89.62
X106.808Y-74.38
X106.808Y-89.62
X109.349Y-74.38
X109.349Y-89.62
X111.888Y-74.38
X111.888Y-89.62
T5
X99.96Y-100.0
X102.5Y-100.0
X120.23Y-100.0
X122.77Y-100.0
X142.23Y-100.0
X144.77Y-100.0
X163.23Y-100.0
X165.77Y-100.0
T6
X96.77Y-115.46
X103.12Y-112.92
X117.77Y-115.46
X124.12Y-112.92
X139.11Y-115.46
X145.46Y-112.92
X160.27Y-115.46
X166.62Y-112.92
T7
X134.5Y-68.5
M30
